<svg xmlns="http://www.w3.org/2000/svg" xmlns:xlink="http://www.w3.org/1999/xlink" version="1.1" x="0px" y="0px"
  viewBox="0 0 60 75" style="enable-background:new 0 0 60 60;" xml:space="preserve">
  <path
    d="M17.6767807,11.2342577C7.4708738,15.609375,3.8565152,24.1877499,5.5399742,33.16185  c11.3188114-11.9476624,25.7829323-16.5519066,38.4763107-14.9516945  C15.9404411,19.1113663,0.9233322,47.112545,0.2879855,48.324192c-0.641364,1.2236366-0.1755363,2.7399712,1.0405755,3.3850708  C1.6990837,51.9060249,2.0963502,52,2.4882677,52c0.893728,0,1.7577946-0.4865189,2.2041724-1.3381691  c0.0623007-0.1186943,2.8315568-5.2874641,8.0564976-11.1095924c19.8953533,4.7362099,28.5122547-1.6189346,33.3317871-12.8771992  C49.3316689,19.0808964,53.9714699,14.2809324,60,12.2752066C43.6707458,7.3232045,29.2285042,6.2822556,17.6767807,11.2342577z" />
</svg>