<svg version="1.1" xmlns="http://www.w3.org/2000/svg" xmlns:xlink="http://www.w3.org/1999/xlink" width="48" height="48"><defs><linearGradient x1="9.15031" y1="10.78293" x2="54.7596" y2="53.12697" gradientUnits="userSpaceOnUse" id="color-1"><stop offset="0" stop-color="#000000" stop-opacity="0.28"></stop><stop offset="1" stop-color="#000000" stop-opacity="0"></stop></linearGradient><filter id="dropshadow-base"><feColorMatrix type="matrix" values="0 0 0 0 0  0 0 0 0 0  0 0 0 0 0  0 0 0 .8 0"></feColorMatrix> <feOffset dx="0" dy="1"></feOffset> <feGaussianBlur stdDeviation="1"></feGaussianBlur> <feComposite in="SourceGraphic"></feComposite></filter><filter id="dropshadow-banner" x="-10%" y="-10%" width="120%" height="130%"><feColorMatrix type="matrix" values="0 0 0 0 0  0 0 0 0 0  0 0 0 0 0  0 0 0 .4 0"></feColorMatrix> <feOffset dx="0" dy="1"></feOffset> <feGaussianBlur stdDeviation="0.5"></feGaussianBlur> <feComposite in="SourceGraphic"></feComposite></filter></defs><g fill="none" fill-rule="nonzero" stroke="none" stroke-width="none" stroke-linecap="butt" stroke-linejoin="miter" stroke-miterlimit="10" stroke-dasharray="" stroke-dashoffset="0" font-family="none" font-weight="none" font-size="none" text-anchor="none" style="mix-blend-mode: normal"><path d="M2,24c0,-12.15026 9.84974,-22 22,-22c12.15026,0 22,9.84974 22,22c0,12.15026 -9.84974,22 -22,22c-12.15026,0 -22,-9.84974 -22,-22z" id="base 1 5" fill="#1f2937" stroke-width="1"></path><path d="M9.15031,37.21707c1.6683,-1.68825 5.30831,-4.87842 6.79035,-6.31028c-0.20577,-0.21439 -0.35694,-0.47528 -0.44056,-0.76063c0.69765,-4.82416 3.22179,-9.19599 7.05088,-12.21217l1.3888,1.00154l0.33385,-2.35697c4.17502,-2.99948 8.99207,-4.9839 14.06837,-5.79562l6.66621,6.66621c0.64454,2.0692 0.99179,4.26948 0.99179,6.55086c0,12.15026 -9.84974,22 -22,22c-2.56282,0 -5.02329,-0.43822 -7.31057,-1.24381z" fill="url(#color-1)" stroke-width="1"></path><path transform="translate(-11.63928,-11.63928) scale(1.48497,1.48497)" d="M33.32538,20.23429c-0.05845,0.13489 -0.13039,0.29226 -0.20234,0.44964l-2.77875,0.28777l2.04585,0.44964c0,0 -1.95592,4.46939 -11.90638,7.72026c-0.30854,0.03327 -0.62017,0.0242 -0.92625,-0.02698l9.06917,-9.44237l-10.03014,8.97505c0.26712,0.24047 0.60025,0.39548 0.95648,0.44484l-4.18162,3.33181l-1.37139,0.47661c1.12346,-1.13689 3.57469,-3.2852 4.57272,-4.24943c-0.13857,-0.14437 -0.24037,-0.32006 -0.29668,-0.51222c0.46981,-3.24866 2.1696,-6.19271 4.74816,-8.22385l0.93524,0.67445l0.22482,-1.58722c2.81152,-2.01989 6.05539,-3.35623 9.47384,-3.90285c0,0 0.95773,1.9829 -0.33273,5.13485z" fill="none" stroke-width="0"></path><path d="M37.84791,18.40804c-0.0868,0.20031 -0.19363,0.434 -0.30046,0.6677l-4.12637,0.42733l3.03802,0.6677c0,0 -2.90448,6.63691 -17.68062,11.46436c-0.45817,0.04941 -0.92094,0.03593 -1.37546,-0.04006l13.46745,-14.02164l-14.89446,13.32768c0.39666,0.3571 0.89136,0.58727 1.42034,0.66057l-6.20958,4.94763l-2.03648,0.70776c1.66831,-1.68825 5.30831,-4.87843 6.79036,-6.31028c-0.20578,-0.21439 -0.35694,-0.47528 -0.44056,-0.76063c0.69765,-4.82416 3.2218,-9.19599 7.05088,-12.21218l1.38881,1.00155l0.33385,-2.35697c4.17503,-2.99948 8.99207,-4.9839 14.06838,-5.79561c0,0 1.42219,2.94454 -0.4941,7.6251z" fill="#65ef65" stroke-width="0"></path><path d="M2,24c0,-12.15026 9.84974,-22 22,-22c12.15026,0 22,9.84974 22,22c0,12.15026 -9.84974,22 -22,22c-12.15026,0 -22,-9.84974 -22,-22z" id="base 1 1 1" fill="none" stroke-width="1"></path><g fill="#000000" stroke-width="1" font-family="Roboto, sans-serif" font-weight="400" font-size="14" text-anchor="start"><g id="Livello_2 1 1"><g id="Logo 1 1"></g></g></g><rect x="2" y="2" width="44" height="22" fill="none" stroke-width="1"></rect><path d="M2,24v-22h44v22z" fill="none" stroke-width="1"></path><path d="M2,24v-22h44v22z" fill="none" stroke-width="1"></path><path d="M2,24v-22h44v22z" fill="none" stroke-width="1"></path><path d="M2,24v-22h44v22z" fill="none" stroke-width="1"></path></g></svg>