<svg xmlns="http://www.w3.org/2000/svg" viewBox="0 0 44.48 39.59"><defs><style>.cls-1{fill:#65ef65;}</style></defs><g id="Livello_2" data-name="Livello 2"><g id="Logo"><path class="cls-1" d="M43.72,0A49.51,49.51,0,0,0,22.65,8.68l-.5,3.53-2.08-1.5A28.47,28.47,0,0,0,9.51,29a2.77,2.77,0,0,0,.68,1.16L32.53,10.17l-20.17,21a7.57,7.57,0,0,0,2.06.06C36.55,24,40.9,14.06,40.9,14.06l-4.55-1,6.18-.64c.16-.35.32-.7.45-1C45.85,4.41,43.72,0,43.72,0Z"/><path class="cls-1" d="M10.2,30.11C8,32.24,2.51,37.05,0,39.59l3.05-1.06,9.3-7.41A4,4,0,0,1,10.2,30.11Z"/></g></g></svg>